<svg width="600" height="80" fill="none" xmlns="http://www.w3.org/2000/svg">
  <path d="m0 80 23.368-23.37.003.004 6.209-6.209-12.22-4.081L0 80Z" fill="#2153A1"/>
  <path d="m29.58 50.42-9.449-9.45-.005.005-14.221-14.22 11.454 19.588 12.22 4.082-.004-.003.005-.003ZM46.372 0l-23.37 23.37-.001-.005-6.209 6.207 12.224 4.083L46.372 0Z" fill="#4B88C7"/>
  <path d="m16.792 29.58 9.449 9.45.003-.005 14.22 14.22-11.449-19.59-12.223-4.083.005.006-.005.003Z" fill="#2153A1"/>
  <path fill-rule="evenodd" clip-rule="evenodd" d="M65.07 27.041h30.833l2.067-9.557H59.602l-2.114 9.557h7.582ZM63.784 61.734h10.522l6.709-30.328H70.446l-6.662 30.328ZM122.599 17.484h-11.395l-6.249 9.557h19.712l-2.068-9.557ZM117.913 44.135h-13.464l8.088-12.728h-10.431L82.209 61.734h10.983l5.514-8.593h21.045l1.746 8.593h10.614l-6.525-30.328h-10.2l2.527 12.729ZM176.822 17.484h-18.335c-2.895 0-5.514.321-7.811.872-2.344.598-4.412 1.7-6.204 3.355-1.516 1.333-2.848 3.125-4.043 5.33h34.279l2.114-9.557ZM136.201 39.632c-1.057 4.594-1.516 8.362-1.424 11.212.092 2.848.689 5.1 1.792 6.708 1.103 1.608 2.665 2.711 4.733 3.309 2.068.597 4.549.873 7.444.873h18.334l2.114-9.742h-18.243c-1.286 0-2.389-.183-3.216-.505-.827-.368-1.425-.965-1.792-1.884-.368-.92-.46-2.16-.368-3.768.092-1.609.414-3.676.965-6.203.552-2.481 1.149-4.55 1.746-6.158.276-.78.598-1.424.919-2.067h-10.706c-.827 2.343-1.608 5.1-2.298 8.225ZM222.726 17.484h-10.523l-2.113 9.557h10.522l2.114-9.557ZM193.409 17.484h-10.522l-2.114 9.557h10.569l2.067-9.557ZM270.192 17.484h-11.395l-8.455 9.557h11.395l8.455-9.557ZM242.346 27.041l-4.227-9.557h-11.58l4.228 9.557h11.579ZM292.754 27.041h14.428c-.184-2.021-.643-3.768-1.516-5.146-1.103-1.838-2.941-3.17-5.469-3.998-2.573-.827-6.019-1.24-10.338-1.24-4.32 0-7.95.413-10.844 1.24-2.941.827-5.331 2.16-7.26 3.998-1.471 1.378-2.758 3.125-3.768 5.146H292.754ZM296.338 33.428c-.138 1.7-.46 3.768-1.011 6.204-.551 2.48-1.103 4.549-1.746 6.249-.644 1.7-1.425 3.032-2.39 4.09-1.011 1.01-2.205 1.745-3.722 2.205-1.47.46-3.308.643-5.605.643-2.252 0-3.998-.184-5.285-.643-1.286-.46-2.206-1.195-2.711-2.206-.551-1.056-.735-2.389-.597-4.09.092-1.7.459-3.767.965-6.248.551-2.436 1.148-4.503 1.746-6.204.276-.735.597-1.424.919-2.021h-10.753a70.097 70.097 0 0 0-2.251 8.225c-.965 4.227-1.47 7.765-1.517 10.66-.091 2.895.414 5.284 1.517 7.122 1.149 1.838 2.986 3.171 5.514 3.998 2.527.827 5.973 1.24 10.293 1.24 4.365 0 7.995-.413 10.89-1.24 2.895-.827 5.33-2.16 7.26-3.998 1.93-1.838 3.492-4.227 4.687-7.122 1.195-2.895 2.252-6.433 3.171-10.66.689-3.079 1.102-5.79 1.332-8.225h-10.752c.092.597.092 1.286.046 2.021ZM358.003 17.484h-9.741l-2.068 9.557h9.695l2.114-9.557ZM328.779 17.484H316.28l-2.113 9.557h18.426l-3.814-9.557ZM341.369 48.867l-7.03-17.46h-21.137l-6.663 30.327h9.788l6.662-30.236 12.499 30.236h12.774l6.663-30.328h-9.696l-3.86 17.462ZM246.619 31.407H232.743l4.825 10.844-4.32 19.483h10.568l4.228-19.346 9.787-10.981h-11.212ZM209.262 31.407H179.807l-6.662 30.327h10.522l3.814-17.232.874-4.043h18.793l-.919 4.043-3.768 17.232h10.523l6.663-30.328h-10.385Z" fill="#231F20"/>
  <text x="375" y="61" font-family="Segoe UI, Arial, sans-serif" font-size="44" font-weight="700" fill="#231F20">Admin</text>
</svg>
